<svg width="48" height="38" viewBox="0 0 48 38" fill="none" xmlns="http://www.w3.org/2000/svg">
<path d="M0 36.6599V1.33689C0 0.80348 0.432386 0.371094 0.965795 0.371094H47.0342C47.5676 0.371094 48 0.80348 48 1.33689V36.6598C48 37.1932 47.5676 37.6256 47.0342 37.6256H0.965795C0.432386 37.6257 0 37.1932 0 36.6599Z" fill="#FED23A"/>
<path d="M2.96297 34.6698H45.037V3.32703H2.96297V34.6698Z" fill="#FFF9E9"/>
<path d="M41.1739 3.32703H45.037V34.6698H41.1739V3.32703Z" fill="#FFF4D6"/>
<path d="M8.66926 10.1146H33.6396C34.0397 10.1146 34.3639 9.79027 34.3639 9.39024C34.3639 8.99021 34.0397 8.66589 33.6396 8.66589H8.66926C8.26913 8.66589 7.94492 8.99021 7.94492 9.39024C7.94492 9.79027 8.26913 10.1146 8.66926 10.1146Z" fill="#FAE19E"/>
<path d="M39.3307 13.0715H8.66926C8.26913 13.0715 7.94492 13.3958 7.94492 13.7959C7.94492 14.1959 8.26913 14.5202 8.66926 14.5202H39.3308C39.731 14.5202 40.0552 14.1959 40.0552 13.7959C40.0552 13.3958 39.7309 13.0715 39.3307 13.0715Z" fill="#FAE19E"/>
<path d="M26.0897 17.4773H8.66926C8.26913 17.4773 7.94492 17.8016 7.94492 18.2016C7.94492 18.6017 8.26913 18.926 8.66926 18.926H26.0897C26.4898 18.926 26.814 18.6017 26.814 18.2016C26.814 17.8016 26.4897 17.4773 26.0897 17.4773Z" fill="#FAE19E"/>
<path d="M20.9907 28.29C19.7612 28.2934 18.5318 28.2962 17.3023 28.2983C16.9074 28.299 16.5124 28.2994 16.1175 28.2997C15.8153 28.2999 15.4891 28.3533 15.2338 28.1582C14.948 27.94 14.8497 27.6317 14.7843 27.2921C14.6426 26.5567 13.5818 26.6503 13.3874 27.2921C13.3013 27.5763 12.8667 28.39 12.4871 28.3235C12.2859 28.2882 12.198 27.9779 12.1236 27.8172C11.9789 27.5044 11.8734 27.1728 11.7831 26.8406C11.4018 25.4369 11.3257 23.9713 11.0871 22.5412C10.9488 21.7118 9.68471 21.9463 9.66433 22.7338C9.59943 25.242 9.18935 27.7159 8.29638 30.0669C7.96502 30.9393 9.36494 31.3166 9.69331 30.4521C10.0376 29.5456 10.3109 28.6174 10.523 27.6753C10.6368 28.0186 10.7725 28.3553 10.9381 28.6828C11.3611 29.5188 12.2239 30.0133 13.147 29.6415C13.4764 29.5088 13.777 29.2768 14.0328 28.9945C14.0689 29.0361 14.1053 29.0773 14.1434 29.1157C14.8459 29.8249 15.77 29.749 16.6889 29.7478C18.1229 29.746 19.5568 29.7426 20.9908 29.7387C21.9228 29.7361 21.9245 28.2874 20.9907 28.29Z" fill="#54B1FF"/>
</svg>
