<svg width="60" height="60" viewBox="0 0 60 60" fill="none" xmlns="http://www.w3.org/2000/svg">
<rect width="59.3684" height="59.3684" rx="16" fill="#FEEEE5"/>
<path d="M35.8606 7.81887L7.24377 28.6102C8.88603 30.8706 8.37953 34.028 6.12641 35.665L16.8642 50.4443C19.1246 48.8021 22.282 49.3086 23.919 51.5617L52.5359 30.7703C50.8936 28.51 51.4001 25.3526 53.6532 23.7156L42.9154 8.93624C40.6623 10.5732 37.5029 10.0792 35.8606 7.81887Z" fill="#FC9D69"/>
<path d="M20.3878 40.3479C19.9656 40.6546 19.5323 40.835 19.0879 40.8891C18.6445 40.9364 18.2224 40.8609 17.8215 40.6625C17.4177 40.4601 17.0596 40.144 16.7472 39.714C16.4377 39.2879 16.2506 38.8535 16.1858 38.4109C16.1182 37.9643 16.1769 37.5395 16.3618 37.1364C16.5507 36.7305 16.8562 36.3742 17.2783 36.0675C17.5559 35.8659 17.851 35.7172 18.1636 35.6215C18.4773 35.519 18.7697 35.4857 19.0407 35.5218L19.2305 36.3872C18.9406 36.3828 18.6831 36.4146 18.4578 36.4827C18.2336 36.544 18.0238 36.6457 17.8284 36.7877C17.4531 37.0603 17.2524 37.3882 17.2263 37.7715C17.2001 38.1548 17.3532 38.5751 17.6854 39.0324C18.0205 39.4937 18.3757 39.7731 18.7512 39.8706C19.1237 39.9643 19.4977 39.8748 19.8729 39.6022C20.0684 39.4602 20.2313 39.294 20.3618 39.1037C20.4934 38.9066 20.6018 38.6696 20.6872 38.3925L21.4516 38.8405C21.4021 39.1094 21.2815 39.3791 21.0899 39.6497C20.8994 39.9136 20.6653 40.1463 20.3878 40.3479Z" fill="white"/>
<path d="M24.4005 37.4329C23.9861 37.7339 23.5621 37.9106 23.1283 37.9629C22.6956 38.0085 22.2774 37.9301 21.8736 37.7278C21.4737 37.5226 21.1162 37.203 20.801 36.7691C20.4858 36.3352 20.2939 35.8984 20.2252 35.4586C20.1604 35.0159 20.218 34.5979 20.398 34.2044C20.579 33.8041 20.8767 33.4535 21.2911 33.1525C21.7054 32.8515 22.1289 32.6782 22.5616 32.6326C22.9915 32.5831 23.4049 32.659 23.802 32.8603C24.199 33.0616 24.5551 33.3791 24.8703 33.813C25.1855 34.2469 25.3789 34.6858 25.4504 35.1295C25.5219 35.5732 25.4691 35.9937 25.292 36.3911C25.112 36.7846 24.8149 37.1319 24.4005 37.4329ZM23.8808 36.7175C24.2327 36.462 24.4168 36.1401 24.4334 35.7518C24.4538 35.3607 24.2965 34.9345 23.9615 34.4733C23.6264 34.012 23.2711 33.7326 22.8957 33.6351C22.5242 33.5347 22.1625 33.6123 21.8107 33.8679C21.4589 34.1234 21.2713 34.4448 21.248 34.832C21.2287 35.2163 21.3865 35.6391 21.7216 36.1004C22.0595 36.5656 22.4156 36.8503 22.79 36.9546C23.1654 37.0521 23.529 36.9731 23.8808 36.7175Z" fill="white"/>
<path d="M29.0406 34.0621C28.4543 34.4881 27.8993 34.6613 27.3757 34.5818C26.8522 34.5023 26.3789 34.1713 25.9557 33.5889L24.1753 31.1379L25.0724 30.4862L26.8827 32.9782C27.1241 33.3105 27.3849 33.5092 27.6651 33.5744C27.9464 33.6328 28.2317 33.5569 28.521 33.3468C28.8102 33.1366 28.9686 32.8902 28.9961 32.6075C29.0208 32.3208 28.9124 32.0113 28.6711 31.6791L26.8608 29.1871L27.7638 28.5311L29.5442 30.9821C29.9645 31.5606 30.131 32.1145 30.0437 32.6437C29.9574 33.1662 29.6231 33.639 29.0406 34.0621Z" fill="white"/>
<path d="M28.6991 27.8516L30.5931 26.4758C31.0543 26.1407 31.4929 25.9923 31.9089 26.0305C32.3287 26.0659 32.6778 26.2752 32.9561 26.6582C33.2315 27.0374 33.3226 27.4341 33.2293 27.8482C33.1332 28.2585 32.8564 28.6297 32.3991 28.9619L31.4199 29.6733L32.6466 31.362L31.7319 32.0265L28.6991 27.8516ZM31.7749 28.3494C32.2518 28.0029 32.3597 27.6499 32.0984 27.2903C31.8343 26.9267 31.4638 26.9182 30.9869 27.2646L30.125 27.8907L30.913 28.9755L31.7749 28.3494Z" fill="white"/>
<path d="M37.7643 27.7249C37.3499 28.0259 36.9259 28.2026 36.4921 28.2549C36.0594 28.3005 35.6412 28.2221 35.2374 28.0198C34.8375 27.8146 34.48 27.4951 34.1648 27.0612C33.8496 26.6273 33.6576 26.1904 33.589 25.7506C33.5242 25.308 33.5818 24.8899 33.7618 24.4964C33.9428 24.0962 34.2405 23.7455 34.6548 23.4445C35.0692 23.1435 35.4927 22.9702 35.9254 22.9246C36.3553 22.8751 36.7687 22.951 37.1657 23.1523C37.5628 23.3536 37.9189 23.6712 38.2341 24.1051C38.5493 24.539 38.7427 24.9778 38.8142 25.4215C38.8857 25.8652 38.8329 26.2858 38.6558 26.6832C38.4758 27.0767 38.1786 27.4239 37.7643 27.7249ZM37.2446 27.0096C37.5964 26.754 37.7806 26.4321 37.7972 26.0438C37.8176 25.6527 37.6603 25.2266 37.3252 24.7653C36.9902 24.304 36.6349 24.0246 36.2595 23.9271C35.888 23.8267 35.5263 23.9043 35.1745 24.1599C34.8227 24.4154 34.6351 24.7368 34.6118 25.124C34.5924 25.5084 34.7503 25.9312 35.0854 26.3924C35.4233 26.8576 35.7794 27.1423 36.1538 27.2466C36.5292 27.3441 36.8928 27.2651 37.2446 27.0096Z" fill="white"/>
<path d="M41.1803 18.7848L44.2131 22.9596L43.5329 23.4537L39.5175 22.3038L41.4514 24.9659L40.5953 25.5877L37.5625 21.4129L38.2368 20.9231L42.2479 22.0671L40.3184 19.4109L41.1803 18.7848Z" fill="white"/>
<path d="M25.9758 45.6947L24.0921 47.0633L23.813 46.9229C23.2496 46.6349 22.646 46.3983 22.0305 46.2367L22.287 45.2644C22.8775 45.422 23.4476 45.6277 23.9952 45.8939L25.379 44.8886L25.9685 45.7L25.9758 45.6947Z" fill="white"/>
<path d="M21.6916 46.1508C21.5737 46.1257 21.4684 46.1027 21.3433 46.0828L21.5196 45.0914C21.6499 45.1185 21.775 45.1383 21.9054 45.1653L21.6916 46.1508ZM20.9931 46.0274C20.8805 46.0095 20.7607 45.997 20.6409 45.9844L20.7421 44.9811C20.8744 44.9956 21.0067 45.0102 21.1318 45.03L20.9931 46.0274Z" fill="white"/>
<path d="M20.299 45.956C19.6637 45.9195 19.0165 45.958 18.3916 46.0578L18.0828 46.105L16.709 44.2142L17.5276 43.6194L18.5435 45.0176C19.1466 44.9336 19.7524 44.9142 20.3627 44.9467L20.299 45.956Z" fill="white"/>
<path d="M16.5909 42.3299L15.7723 42.9247L14.8301 41.6279L15.6487 41.0331L16.5909 42.3299ZM14.7013 39.729L13.8826 40.3238L12.9404 39.027L13.7591 38.4322L14.7013 39.729Z" fill="white"/>
<path d="M12.8116 37.1281L11.9929 37.7228L10.6191 35.832L10.7595 35.5529C11.0547 34.9842 11.2841 34.3858 11.4457 33.7703L12.4233 34.0341C12.2657 34.6246 12.06 35.1947 11.7937 35.7423L12.8043 37.1333L12.8116 37.1281Z" fill="white"/>
<path d="M12.5277 33.6594L11.5422 33.4456C11.5673 33.3278 11.5851 33.2152 11.6102 33.0974L12.6017 33.2736C12.5746 33.404 12.5548 33.5291 12.5277 33.6594ZM12.6631 32.8859L11.6585 32.7524C11.6763 32.6398 11.6888 32.52 11.7014 32.4002L12.712 32.4961C12.6922 32.6212 12.6776 32.7536 12.6631 32.8859Z" fill="white"/>
<path d="M12.7412 32.1096L11.7372 32.0532C11.7737 31.4178 11.7352 30.7706 11.6354 30.1458L11.5881 29.8369L13.479 28.4631L14.0738 29.2818L12.6756 30.2977C12.749 30.8863 12.7738 31.4993 12.7412 32.1096Z" fill="white"/>
<path d="M21.4505 23.9115L19.6031 25.2537L19.0083 24.435L20.8557 23.0928L21.4505 23.9115ZM17.7557 26.5959L15.9083 27.9382L15.3135 27.1195L17.1609 25.7773L17.7557 26.5959Z" fill="white"/>
<path d="M32.5491 15.8475L30.7017 17.1897L30.1069 16.371L31.9543 15.0288L32.5491 15.8475ZM28.847 18.5372L26.9996 19.8794L26.4048 19.0608L28.2522 17.7185L28.847 18.5372ZM25.1522 21.2216L23.3048 22.5639L22.71 21.7452L24.5574 20.403L25.1522 21.2216Z" fill="white"/>
<path d="M37.489 14.1292C36.8985 13.9715 36.3284 13.7659 35.7808 13.4996L34.397 14.505L33.8022 13.6863L35.6931 12.3125L35.9722 12.4529C36.5357 12.7408 37.132 12.9828 37.7548 13.1391L37.489 14.1292Z" fill="white"/>
<path d="M39.0365 14.3996C38.9042 14.3851 38.7718 14.3705 38.6467 14.3507L38.7855 13.3533C38.8981 13.3711 39.0179 13.3837 39.1377 13.3963L39.0365 14.3996ZM38.2517 14.2945C38.1214 14.2675 37.9963 14.2477 37.866 14.2206L38.0798 13.2351C38.1976 13.2602 38.3102 13.278 38.428 13.3031L38.2517 14.2945Z" fill="white"/>
<path d="M43.058 15.1525L42.2394 15.7473L41.234 14.3635C40.6381 14.4423 40.0252 14.467 39.4149 14.4344L39.466 13.4232C40.1014 13.4597 40.7486 13.4212 41.3734 13.3214L41.6822 13.2741L43.0508 15.1578L43.058 15.1525Z" fill="white"/>
<path d="M46.8385 20.3541L46.0198 20.9489L45.0776 19.6521L45.8963 19.0573L46.8385 20.3541ZM44.9488 17.7533L44.1302 18.3481L43.188 17.0512L44.0066 16.4564L44.9488 17.7533Z" fill="white"/>
<path d="M48.3219 25.5965L47.3443 25.3327C47.5019 24.7422 47.7076 24.1721 47.9739 23.6245L46.9685 22.2407L47.7872 21.6459L49.161 23.5368L49.0206 23.8159C48.7201 24.3774 48.4835 24.981 48.3219 25.5965Z" fill="white"/>
<path d="M48.0772 26.9804L47.0667 26.8845C47.0812 26.7522 47.0958 26.6198 47.1156 26.4948L48.1202 26.6282C48.1004 26.7533 48.0826 26.8659 48.0772 26.9804ZM48.1684 26.2833L47.177 26.107C47.204 25.9766 47.2239 25.8516 47.2509 25.7212L48.2364 25.935C48.2113 26.0528 48.1935 26.1654 48.1684 26.2833Z" fill="white"/>
<path d="M48.2029 29.5459L46.312 30.9197L45.7172 30.1011L47.1009 29.0957C47.0222 28.4998 46.9975 27.8869 47.03 27.2765L48.0413 27.3277C48.0048 27.9631 48.0433 28.6103 48.1431 29.2351L48.2029 29.5459Z" fill="white"/>
<path d="M44.4719 32.2566L42.6245 33.5989L42.0297 32.7802L43.8771 31.438L44.4719 32.2566ZM40.7698 34.9464L38.9224 36.2886L38.3276 35.4699L40.1751 34.1277L40.7698 34.9464Z" fill="white"/>
<path d="M37.0745 37.631L35.2271 38.9732L34.6323 38.1545L36.4797 36.8123L37.0745 37.631ZM33.3724 40.3207L31.525 41.6629L30.9302 40.8442L32.7776 39.502L33.3724 40.3207ZM29.6776 43.0051L27.8301 44.3474L27.2354 43.5287L29.0828 42.1865L29.6776 43.0051Z" fill="white"/>
</svg>
