<svg width="147" height="133" viewBox="0 0 147 133" fill="none" xmlns="http://www.w3.org/2000/svg">
<g opacity="0.5">
<path opacity="0.15" d="M130.038 101.306C107.596 101.132 57.4606 104.099 18.0714 110.399C-21.3179 116.7 12.0207 130.815 39.1666 124.801C66.3125 118.787 85.2637 137.937 118.477 131.472C151.689 125.008 156.075 101.509 130.038 101.306Z" fill="#606060"/>
<path d="M33.262 88.9386C31.4966 87.8288 30.2437 86.0639 29.7782 84.0313C29.3128 81.9986 29.6728 79.8644 30.7793 78.0969L30.7894 78.0786L39.337 64.4743C39.8872 63.5974 40.6048 62.8376 41.4487 62.2383C42.2927 61.6389 43.2465 61.2117 44.2556 60.9811C45.2647 60.7506 46.3094 60.7211 47.3299 60.8945C48.3504 61.0678 49.3267 61.4406 50.2031 61.9915C51.9726 63.1044 53.2277 64.8744 53.6925 66.9124C54.1573 68.9504 53.7937 71.0896 52.6818 72.8596L44.1342 86.4498C43.5864 87.3264 42.8714 88.0864 42.0299 88.6866C41.1884 89.2868 40.2369 89.7154 39.2297 89.9478C38.2226 90.1802 37.1795 90.212 36.1601 90.0413C35.1407 89.8706 34.1649 89.5007 33.2884 88.9528L33.262 88.9386Z" fill="#0F2336"/>
<path d="M62.481 93.7391C60.0469 97.238 54.5703 98.6072 50.2133 96.7816H50.191L34.1241 90.0677C29.7692 88.2421 28.2134 83.9298 30.6495 80.4268C33.0835 76.9237 38.5886 75.5586 42.9415 77.3842L58.9962 84.1103C63.3491 85.9196 64.915 90.2279 62.4932 93.7289L62.481 93.7391Z" fill="#0F2336"/>
<path d="M24.8969 117.063L28.7163 110.245L108.765 55.625L112.089 60.8866L24.8969 117.063Z" fill="#E6E7E8"/>
<path d="M127.128 52.5427L113.537 61.1491C112.662 61.7062 111.608 61.9101 110.588 61.7197C109.568 61.5293 108.658 60.9588 108.042 60.1235C107.427 59.2882 107.151 58.2503 107.271 57.2197C107.391 56.189 107.898 55.2424 108.69 54.5711C108.832 54.4426 108.986 54.3271 109.15 54.2262L122.74 45.6198C123.497 45.1359 124.392 44.9142 125.287 44.9888C126.182 45.0634 127.028 45.4302 127.694 46.0327C128.36 46.6352 128.809 47.4399 128.973 48.3231C129.137 49.2062 129.006 50.1187 128.6 50.92C128.431 51.2703 128.208 51.592 127.939 51.8733C127.699 52.1309 127.426 52.3559 127.128 52.5427Z" fill="#353635"/>
<path d="M127.939 51.874L118.945 48.02L120.124 47.2695L128.59 50.9206C128.424 51.2704 128.204 51.5921 127.939 51.874Z" fill="#FCB91F"/>
<path d="M125.84 53.3545L124.653 54.109L115.513 50.1882L116.704 49.4336L125.84 53.3545Z" fill="#FCB91F"/>
<path d="M122.41 55.536L121.219 56.2784L112.077 52.3758L113.27 51.6172L122.41 55.536Z" fill="#FCB91F"/>
<path d="M118.963 57.7176L117.783 58.4661L108.688 54.5716C108.832 54.4442 108.986 54.3295 109.15 54.2288L109.828 53.8008L118.963 57.7176Z" fill="#FCB91F"/>
<path d="M105.473 49.5391L117.791 68.5694L114.381 70.7296L102.063 51.6932L105.473 49.5391Z" fill="#353635"/>
<path d="M123.117 121.476L119.854 114.377L44.422 53.5391L40.6877 58.5208L123.117 121.476Z" fill="#E6E7E8"/>
<path d="M26.3613 49.0061L39.2274 58.6713C40.057 59.2876 41.0889 59.5674 42.1161 59.4547C43.1434 59.342 44.09 58.8451 44.7663 58.0636C45.4425 57.2822 45.7983 56.274 45.7623 55.2412C45.7263 54.2084 45.3012 53.2274 44.5722 52.4949C44.4406 52.3558 44.2966 52.2288 44.1422 52.1156L31.2802 42.4503C30.5643 41.9104 29.6911 41.6205 28.7945 41.6251C27.8979 41.6296 27.0276 41.9284 26.3173 42.4756C25.607 43.0228 25.0961 43.788 24.8629 44.6538C24.6297 45.5195 24.6872 46.4379 25.0266 47.2677C25.1665 47.6341 25.363 47.9763 25.6088 48.2819C25.8273 48.5548 26.0802 48.7982 26.3613 49.0061Z" fill="#353635"/>
<path d="M25.6128 48.2682L34.8846 45.1425L33.771 44.3027L25.0367 47.2662C25.1753 47.6282 25.3696 47.9664 25.6128 48.2682Z" fill="#FCB91F"/>
<path d="M27.5823 49.9207L28.706 50.7685L38.1279 47.588L37.0021 46.7422L27.5823 49.9207Z" fill="#FCB91F"/>
<path d="M30.8278 52.358L31.9555 53.1957L41.3794 50.0335L40.2517 49.1836L30.8278 52.358Z" fill="#FCB91F"/>
<path d="M34.0895 54.8093L35.2071 55.6491L44.5844 52.4889C44.4508 52.3502 44.3056 52.2233 44.1503 52.1096L43.5093 51.6309L34.0895 54.8093Z" fill="#FCB91F"/>
<path d="M48.1908 47.7344L34.3917 65.7221L37.6169 68.146L51.416 50.1563L48.1908 47.7344Z" fill="#353635"/>
<path d="M52.8176 50.5371L50.2152 107.835H99.071H100.274V92.0542L99.071 53.6933L52.8176 50.5371Z" fill="#0F2336"/>
<path d="M51.6169 89.4576L98.0406 90.7476C98.7211 90.6476 99.4076 90.5934 100.095 90.5854L100.485 89.129C98.6917 89.056 100.248 88.841 100.292 88.6746L100.077 83.7659C100.033 83.5976 100.221 82.7294 99.7019 82.7943L51.8116 81.5469C51.7397 81.549 51.6715 81.5793 51.6218 81.6313C51.5721 81.6833 51.5448 81.7528 51.5459 81.8248L51.4344 86.4353L51.3674 89.1574C51.3635 89.1936 51.3669 89.2302 51.3774 89.265C51.3879 89.2999 51.4053 89.3323 51.4286 89.3603C51.4519 89.3883 51.4805 89.4113 51.5129 89.4281C51.5452 89.4448 51.5806 89.4548 51.6169 89.4576Z" fill="#091D28"/>
<path d="M100.815 62.3652C100.842 62.6721 100.852 62.9802 100.844 63.2881C100.824 64.0224 100.014 64.6107 99.0366 64.6147L52.8745 64.8176C52.126 64.8176 51.5175 64.3713 51.5094 63.8034L51.621 62.9535L100.815 62.3652Z" fill="#091D28"/>
<path opacity="0.2" d="M107.986 16.2477L83.4423 16.5094C83.2657 16.5113 83.0906 16.4783 82.9268 16.4125C82.7631 16.3466 82.6139 16.2491 82.4879 16.1255C82.3618 16.0019 82.2614 15.8546 82.1923 15.6922C82.1232 15.5298 82.0869 15.3553 82.0853 15.1788C82.082 14.8228 82.22 14.4801 82.4691 14.2257C82.7181 13.9713 83.0579 13.8261 83.4139 13.8218L107.957 13.5723C108.314 13.5696 108.656 13.7081 108.911 13.9574C109.165 14.2068 109.31 14.5468 109.314 14.9029C109.313 15.2565 109.174 15.5955 108.925 15.847C108.677 16.0985 108.339 16.2424 107.986 16.2477Z" fill="white"/>
<path d="M71.562 120.939C71.8147 120.757 72.1017 120.628 72.4058 120.56C76.495 119.684 106.535 113.223 113.193 111.09C113.566 110.97 113.866 110.864 114.083 110.773C118.462 108.948 120.473 89.7408 103.221 91.6962L103.006 91.7266C100.905 92.0897 68.6614 97.7956 59.5296 107.142L59.3998 107.268C58.5093 108.067 48.4079 117.367 51.8846 124.562C52.2026 125.2 52.7118 125.723 53.3411 126.059C53.9705 126.394 54.6887 126.525 55.3957 126.432C58.9393 125.992 66.3227 124.678 71.562 120.939Z" fill="#091D28"/>
<path d="M58.0915 116.061C58.0915 116.061 52.8886 120.397 53.9028 123.811C53.9028 123.811 57.0326 126.123 61.631 123.298C61.6391 123.298 63.6776 118.736 58.0915 116.061Z" fill="#0F2336"/>
<path d="M80.6776 120.751C80.3863 120.53 80.0529 120.37 79.6978 120.283C75.3388 119.226 45.8238 112.047 39.2538 109.753C38.8846 109.623 38.5581 109.561 38.3735 109.414C31.9516 104.297 32.5459 88.2564 49.6899 90.6235C49.7953 90.6377 49.8927 90.6559 50.0043 90.6762C52.5134 91.1813 84.1238 97.7005 92.9757 107.189C93.0365 107.254 93.0974 107.317 93.1623 107.378C94.073 108.246 101.548 115.583 100.968 122.11C100.907 122.774 100.709 123.417 100.386 124C100.063 124.583 99.6226 125.092 99.0926 125.495C98.5626 125.899 97.9545 126.188 97.3069 126.344C96.6593 126.5 95.9863 126.52 95.3306 126.402C91.5335 125.729 85.2536 124.167 80.6776 120.751Z" fill="#0F2336"/>
<path d="M85.6796 122.14C85.6796 122.14 90.1988 125.052 94.787 124.777C94.787 124.777 99.0832 122.529 95.357 116.728C95.357 116.734 86.0934 111.896 85.6796 122.14Z" fill="#091D28"/>
<path d="M110.976 4.38477L54.8035 4.95069C52.6436 4.96869 50.5124 5.4486 48.5533 6.35822C46.5941 7.26784 44.8522 8.5861 43.4445 10.2245C43.1528 10.554 42.8786 10.8986 42.6231 11.2569C40.6981 13.8939 41.834 17.0804 41.8644 20.3482L39.7509 22.9668L40.0145 48.5975C40.051 52.6352 41.6898 56.493 44.5705 59.3224C47.4512 62.1517 51.3379 63.7209 55.3755 63.6847H55.3978L96.3469 63.279C100.385 63.241 104.242 61.6006 107.07 58.7188C109.898 55.8369 111.466 51.9496 111.428 47.9119V47.8754L110.976 4.38477ZM101.645 34.7944C101.65 35.3098 101.606 35.8245 101.515 36.3319C101.173 38.1864 100.196 39.8643 98.7534 41.0786C97.3104 42.2929 95.4904 42.9682 93.6046 42.989L60.3288 43.3237C58.445 43.3392 56.6142 42.7007 55.1486 41.517C53.6831 40.3333 52.6736 38.6778 52.2924 36.8329C52.1928 36.327 52.1405 35.813 52.1362 35.2974C52.1189 33.1422 52.9572 31.0682 54.4673 29.5304C55.9773 27.9925 58.0358 27.1166 60.1909 27.0946L93.4565 26.7619C95.608 26.7403 97.68 27.5742 99.2168 29.0801C100.754 30.5861 101.629 32.6408 101.651 34.7923L101.645 34.7944Z" fill="#0F2336"/>
<path d="M103.306 25.3359H49.0914V45.2324H103.306V25.3359Z" fill="#0F2336"/>
<path d="M48.3837 35.2414C48.3835 35.7939 48.4344 36.3453 48.5358 36.8884C48.9196 38.8686 49.9787 40.6542 51.5324 41.9405C53.0861 43.2267 55.038 43.9338 57.055 43.9411L92.6816 43.9979C94.6999 43.9995 96.6559 43.2994 98.2148 42.0177C99.7737 40.7359 100.839 38.9521 101.227 36.9716C101.329 36.4284 101.381 35.8772 101.383 35.3245C101.383 33.0216 100.471 30.8126 98.8448 29.1815C97.219 27.5504 95.013 26.6303 92.71 26.6228L57.0855 26.5781C54.7829 26.5738 52.573 27.4839 50.9412 29.1085C49.3095 30.733 48.3896 32.9389 48.3837 35.2414Z" fill="#F0977E"/>
<path d="M48.5356 36.8877C48.9194 38.8678 49.9785 40.6535 51.5322 41.9397C53.0859 43.2259 55.0379 43.9331 57.0549 43.9404L92.6815 43.9972C94.6997 43.9987 96.6557 43.2987 98.2146 42.0169C99.7736 40.7351 100.838 38.9513 101.227 36.9708C100.841 34.9917 99.7814 33.2074 98.2282 31.9216C96.675 30.6357 94.7242 29.9278 92.7079 29.9181L57.0812 29.8613C55.0627 29.8586 53.1061 30.5582 51.5469 31.8402C49.9878 33.1222 48.9232 34.9067 48.5356 36.8877Z" fill="#F9C197"/>
<path d="M26.0591 5.48882L35.7244 0L46.4931 18.9715L39.0915 23.1723L37.5479 21.6449L35.5235 22.1601L26.0591 5.48882Z" fill="#F26E26"/>
<path d="M21.7109 8.95474L19.8223 19.9531L41.4074 23.6597L43.296 12.6613L21.7109 8.95474Z" fill="#F26E26"/>
<path d="M111.957 11.8066L112.077 23.4678L39.9556 24.19L39.9292 21.5977C39.8912 18.326 40.9218 15.1312 42.8643 12.4983L111.957 11.8066Z" fill="#F26E26"/>
<path opacity="0.37" d="M51.9251 65.7656L41.2051 80.5587L51.7304 79.3031L51.9251 65.7656Z" fill="black"/>
<path d="M118.72 90.5227C119.596 89.9745 120.356 89.2591 120.955 88.4173C121.555 87.5755 121.982 86.6238 122.214 85.6167C122.446 84.6095 122.477 83.5665 122.305 82.5474C122.134 81.5282 121.763 80.5528 121.215 79.6769L121.203 79.6587L112.657 66.0543C111.546 64.2839 109.776 63.0276 107.739 62.5617C105.701 62.0957 103.561 62.4582 101.791 63.5695C100.913 64.1201 100.153 64.8383 99.5526 65.6831C98.9527 66.5279 98.5252 67.4827 98.2946 68.4928C98.064 69.503 98.0348 70.5487 98.2088 71.5702C98.3827 72.5916 98.7563 73.5688 99.3083 74.4457L107.858 88.0359C108.405 88.9124 109.12 89.6724 109.962 90.2726C110.803 90.8727 111.754 91.3013 112.761 91.5337C113.768 91.7662 114.811 91.798 115.83 91.6273C116.85 91.4566 117.825 91.0868 118.702 90.5389L118.72 90.5227Z" fill="#0F2336"/>
<path d="M89.5032 95.323C91.9372 98.824 97.4139 100.191 101.771 98.3777H101.791L117.86 91.6536C122.213 89.8281 123.769 85.5157 121.335 82.0127C118.901 78.5097 113.394 77.1446 109.041 78.9701L92.9879 85.6962C88.635 87.5056 87.0691 91.8118 89.491 95.3149L89.5032 95.323Z" fill="#0F2336"/>
<path opacity="0.37" d="M100.059 67.3496L110.777 82.1426L100.252 80.8871L100.059 67.3496Z" fill="black"/>
<path fill-rule="evenodd" clip-rule="evenodd" d="M90.9494 36.9414L79.7527 38.9515C79.7527 38.9515 88.6512 46.8481 90.9494 36.9414Z" fill="#0F2336"/>
<path fill-rule="evenodd" clip-rule="evenodd" d="M60.9028 36.9414L72.0975 38.9515C72.0975 38.9515 63.1888 46.8481 60.9028 36.9414Z" fill="#0F2336"/>
<path opacity="0.11" d="M122.416 86.1451C122.416 91.2567 113.907 93.3013 103.807 97.5244C103.434 97.6806 103.519 96.281 103.556 95.8794L103.694 94.3682C103.711 94.2107 103.789 94.0661 103.912 93.9654C104.034 93.8646 104.191 93.8155 104.349 93.8287C106.347 94.0315 114.118 93.8165 121.324 85.0782C121.663 84.6664 122.416 85.6035 122.416 86.1451Z" fill="#47A6FF"/>
<path opacity="0.11" d="M29.5621 84.4247C29.5966 86.8222 31.6351 91.9074 47.5438 93.8425C47.6367 93.8521 47.7305 93.8402 47.818 93.8077C47.9055 93.7752 47.9844 93.723 48.0485 93.6552C48.1126 93.5873 48.1603 93.5056 48.1878 93.4164C48.2153 93.3272 48.2219 93.2328 48.2071 93.1407L47.9312 91.6478C47.9169 91.5702 47.8873 91.4962 47.8441 91.4301C47.801 91.3641 47.7451 91.3072 47.6799 91.2629C47.6146 91.2185 47.5411 91.1876 47.4638 91.1718C47.3865 91.1561 47.3068 91.1558 47.2294 91.1711C45.2578 91.5464 38.552 92.0433 30.5824 83.9967C30.4967 83.9178 30.3901 83.8652 30.2753 83.8451C30.1605 83.825 30.0424 83.8382 29.9349 83.8833C29.8275 83.9284 29.7352 84.0034 29.6691 84.0993C29.6031 84.1953 29.5659 84.3082 29.5621 84.4247Z" fill="#47A6FF"/>
<path d="M49.3957 97.6432L36.053 34.6252C35.1686 30.4508 38.1645 26.4812 42.2253 26.4447L109.617 25.8362C113.728 25.7977 116.799 29.8017 115.905 34.0228L103.083 94.2051C102.426 97.2862 99.8194 99.4789 96.8194 99.4525L51.3876 99.1665" fill="url(#paint0_linear_252_8762)"/>
<path d="M99.8622 99.8395H52.4952C51.5707 99.8401 50.6759 99.5126 49.9702 98.9154C49.2644 98.3181 48.7935 97.4898 48.6413 96.5778L42.9293 62.5009C42.8356 61.941 42.865 61.3674 43.0156 60.8201C43.1661 60.2727 43.4341 59.7647 43.8009 59.3315C44.1677 58.8982 44.6246 58.5501 45.1396 58.3114C45.6547 58.0727 46.2156 57.9491 46.7833 57.9492H105.572C106.14 57.9491 106.701 58.0727 107.216 58.3114C107.731 58.5501 108.188 58.8982 108.554 59.3315C108.921 59.7647 109.189 60.2727 109.34 60.8201C109.49 61.3674 109.52 61.941 109.426 62.5009L103.714 96.5778C103.562 97.4894 103.091 98.3175 102.386 98.9147C101.681 99.5119 100.786 99.8396 99.8622 99.8395Z" fill="#D38C24"/>
<path d="M99.8621 99.8386H52.4952C51.5856 99.8517 50.7005 99.5436 49.9956 98.9686C49.2906 98.3935 48.8111 97.5883 48.6413 96.6946L42.9293 63.8347C42.5237 61.5385 44.3675 59.4473 46.7833 59.4473H105.572C107.988 59.4473 109.832 61.5385 109.426 63.8347L103.714 96.6946C103.544 97.5879 103.065 98.3929 102.361 98.9679C101.656 99.5429 100.771 99.8512 99.8621 99.8386Z" fill="#FFB947"/>
<path fill-rule="evenodd" clip-rule="evenodd" d="M73.432 81.6719L76.2312 82.4366C76.2312 82.4366 73.9837 84.4406 73.432 81.6719Z" fill="white"/>
<path fill-rule="evenodd" clip-rule="evenodd" d="M80.0932 82.2012L77.2941 82.5602C77.2941 82.5602 79.5131 84.8868 80.0932 82.2012Z" fill="white"/>
<path d="M74.1014 79.9244L79.9837 80.3524V77.1495L74.1014 76.7215C73.171 76.5972 72.2263 76.7971 71.4259 77.2875C70.7236 77.7624 70.1991 78.4574 69.9351 79.2631C69.6238 80.2382 69.4751 81.2579 69.4949 82.2814C69.4739 83.3248 69.6198 84.365 69.9269 85.3625C70.2028 86.2215 70.7204 86.9827 71.4178 87.5552C72.1858 88.1483 73.1231 88.4809 74.0933 88.5044L79.9756 88.9324V85.7296L74.0933 85.3016C73.3488 85.2469 72.8255 84.969 72.4929 84.4903C72.1602 84.0116 71.9695 83.3341 71.9695 82.4619C71.9695 80.6789 72.6592 79.825 74.0933 79.9264L74.1014 79.9244Z" fill="white"/>
<path d="M80.5131 80.0624L80.0811 80.3017V77.1009L80.9959 76.5918V79.2409C80.9958 79.4084 80.951 79.5728 80.8661 79.7172C80.7813 79.8616 80.6594 79.9808 80.5131 80.0624Z" fill="white"/>
<path d="M80.9959 88.3956L80.0811 88.9048V85.7019C80.1745 85.6474 80.2809 85.6189 80.3891 85.6191C80.4973 85.6194 80.6034 85.6485 80.6966 85.7035C80.7898 85.7585 80.8667 85.8373 80.9193 85.9319C80.9719 86.0264 80.9983 86.1333 80.9959 86.2415V88.3956Z" fill="white"/>
</g>
<defs>
<linearGradient id="paint0_linear_252_8762" x1="93.5862" y1="34.0593" x2="42.8298" y2="95.0752" gradientUnits="userSpaceOnUse">
<stop stop-color="white" stop-opacity="0.1"/>
<stop offset="0.23" stop-color="#FCFEFE" stop-opacity="0.11"/>
<stop offset="0.39" stop-color="#F4F9FB" stop-opacity="0.16"/>
<stop offset="0.52" stop-color="#E6F2F5" stop-opacity="0.24"/>
<stop offset="0.64" stop-color="#D2E7ED" stop-opacity="0.36"/>
<stop offset="0.75" stop-color="#B8D9E3" stop-opacity="0.51"/>
<stop offset="0.86" stop-color="#99C9D7" stop-opacity="0.69"/>
<stop offset="0.96" stop-color="#74B5C9" stop-opacity="0.9"/>
<stop offset="1" stop-color="#63ACC2"/>
</linearGradient>
</defs>
</svg>
