<svg width="37" height="37" viewBox="0 0 37 37" fill="none" xmlns="http://www.w3.org/2000/svg">
<path d="M31.4757 30.7949H26.1411V22.4408C26.1411 20.4486 26.1056 17.8841 23.3666 17.8841C20.5882 17.8841 20.1631 20.0546 20.1631 22.2957V30.7944H14.8285V13.6148H19.9497V15.9626H20.0214C20.5339 15.0863 21.2745 14.3654 22.1643 13.8767C23.0541 13.388 24.0598 13.1498 25.0742 13.1875C30.4811 13.1875 31.478 16.7439 31.478 21.3705L31.4757 30.7949ZM8.8093 11.2665C8.19702 11.2666 7.59845 11.0851 7.0893 10.7451C6.58015 10.405 6.18328 9.92157 5.94887 9.35594C5.71446 8.79032 5.65304 8.16788 5.77239 7.56735C5.89173 6.96681 6.18646 6.41515 6.61933 5.98213C7.0522 5.54911 7.60375 5.25417 8.20424 5.13461C8.80473 5.01506 9.4272 5.07625 9.99291 5.31046C10.5586 5.54466 11.0422 5.94136 11.3824 6.45039C11.7227 6.95942 11.9044 7.55792 11.9045 8.17019C11.9045 8.57673 11.8245 8.9793 11.669 9.35492C11.5135 9.73054 11.2856 10.0718 10.9981 10.3594C10.7107 10.6469 10.3695 10.875 9.99394 11.0306C9.61837 11.1863 9.21583 11.2664 8.8093 11.2665ZM11.4766 30.7949H6.13644V13.6148H11.4766V30.7949ZM34.1352 0.121081H3.45581C2.75947 0.113223 2.0885 0.382139 1.59033 0.868737C1.09217 1.35534 0.807571 2.01981 0.799072 2.71613V33.5228C0.80728 34.2195 1.0917 34.8844 1.58985 35.3715C2.088 35.8586 2.75913 36.1281 3.45581 36.1206H34.1352C34.8333 36.1294 35.5063 35.8607 36.0064 35.3736C36.5065 34.8865 36.7929 34.2209 36.8026 33.5228V2.71391C36.7926 2.0162 36.5061 1.35098 36.0059 0.864391C35.5058 0.377805 34.833 0.111879 34.1352 0.121081Z" fill="#0A66C2"/>
</svg>
