<svg width="68" height="68" viewBox="0 0 68 68" fill="none" xmlns="http://www.w3.org/2000/svg">
<path d="M39.8559 48.4556C47.757 48.4556 54.162 42.05 54.162 34.1483C54.162 26.2467 47.757 19.8411 39.8559 19.8411C31.9549 19.8411 25.5498 26.2467 25.5498 34.1483C25.5498 42.05 31.9549 48.4556 39.8559 48.4556Z" fill="#7A26F1"/>
<path d="M41.5881 47.0247C38.7383 47.0197 35.955 46.1637 33.5949 44.5663C31.2348 42.969 29.4055 40.7031 28.3415 38.0592C27.2776 35.4152 27.0274 32.5138 27.6231 29.7268C28.2188 26.9397 29.6333 24.3941 31.6851 22.4163C30.0415 23.5334 28.6487 24.9807 27.5954 26.6659C26.542 28.3512 25.8514 30.2374 25.5673 32.2044C25.2833 34.1714 25.4121 36.176 25.9456 38.0904C26.4791 40.0048 27.4056 41.7871 28.6659 43.3236C29.9263 44.8601 31.493 46.1172 33.266 47.0147C35.0391 47.9122 36.9797 48.4304 38.9641 48.5363C40.9485 48.6422 42.9332 48.3335 44.7917 47.6299C46.6502 46.9262 48.3418 45.843 49.7585 44.4494C47.3648 46.1279 44.5116 47.0272 41.5881 47.0247Z" fill="#6200EE"/>
<path d="M39.7708 45.2387C45.8846 45.2387 50.8409 40.2869 50.8409 34.1785C50.8409 28.0701 45.8846 23.1183 39.7708 23.1183C33.6569 23.1183 28.7007 28.0701 28.7007 34.1785C28.7007 40.2869 33.6569 45.2387 39.7708 45.2387Z" fill="#D0B3FA"/>
<path d="M41.5264 43.284C39.4889 43.2807 37.4928 42.7039 35.7631 41.6187C34.0333 40.5336 32.6388 38.9831 31.7367 37.1422C30.8346 35.3012 30.4607 33.243 30.6573 31.1994C30.8538 29.1558 31.6129 27.2082 32.849 25.576C31.6303 26.5483 30.6312 27.7712 29.9184 29.1632C29.2056 30.5551 28.7955 32.0842 28.7153 33.6485C28.635 35.2127 28.8867 36.7763 29.4533 38.2348C30.0199 39.6934 30.8886 41.0135 32.0014 42.1072C33.1142 43.2009 34.4456 44.043 35.9068 44.5774C37.368 45.1118 38.9254 45.3262 40.4753 45.2064C42.0252 45.0866 43.532 44.6352 44.8952 43.8825C46.2584 43.1297 47.4467 42.0928 48.3809 40.8409C46.4394 42.419 44.0209 43.281 41.5264 43.284Z" fill="#B180F7"/>
<g filter="url(#filter0_d)">
<path d="M33.9854 48.4554C26.0844 48.4554 19.6793 42.0498 19.6793 34.1482C19.6793 26.2466 26.0844 19.8411 33.9854 19.8411C41.8865 19.8411 48.2915 26.2466 48.2915 34.1482C48.2915 42.0498 41.8865 48.4554 33.9854 48.4554Z" fill="#7A26F1"/>
<path d="M32.2542 47.0248C35.104 47.0198 37.8873 46.1638 40.2474 44.5664C42.6075 42.9691 44.4368 40.7032 45.5008 38.0593C46.5647 35.4154 46.8149 32.514 46.2192 29.727C45.6235 26.94 44.209 24.3944 42.1572 22.4166C43.8008 23.5337 45.1936 24.9809 46.2469 26.6662C47.3002 28.3514 47.9909 30.2376 48.275 32.2046C48.559 34.1716 48.4302 36.1761 47.8967 38.0905C47.3632 40.005 46.4367 41.7872 45.1763 43.3237C43.916 44.8602 42.3493 46.1173 40.5763 47.0148C38.8032 47.9122 36.8626 48.4304 34.8782 48.5364C32.8938 48.6423 30.9091 48.3336 29.0506 47.6299C27.1921 46.9263 25.5006 45.8431 24.0838 44.4495C26.4776 46.128 29.3307 47.0273 32.2542 47.0248Z" fill="#6200EE"/>
<path d="M33.6192 44.4195C27.7318 44.4195 22.9591 39.651 22.9591 33.7689C22.9591 27.8867 27.7318 23.1183 33.6192 23.1183C39.5066 23.1183 44.2793 27.8867 44.2793 33.7689C44.2793 39.651 39.5066 44.4195 33.6192 44.4195Z" fill="#D0B3FA"/>
<path d="M30.9594 38.0558H29.2605L27.4744 33.5423L26.6532 38.0558H24.8979L26.1913 30.9049H27.9056L29.6865 35.4184L30.5026 30.9049H32.2579L30.9594 38.0558Z" fill="#7A26F1"/>
<path d="M40.9184 33.9374H42.6401L42.3801 35.3526H40.6635L40.3046 37.2673H38.7077L39.0614 35.3526H37.3345L37.5946 33.9374H39.3215L39.6648 32.0766H41.2617L40.9184 33.9374Z" fill="#7A26F1"/>
<path d="M37.9475 35.7235C37.903 36.2245 37.7302 36.6698 37.4291 37.0594C37.1314 37.449 36.7379 37.7486 36.2486 37.9582C35.7627 38.1677 35.2358 38.2676 34.6678 38.2578C33.8877 38.2414 33.2735 38.0007 32.8253 37.5358C32.377 37.0709 32.1324 36.4406 32.0913 35.6449C32.0605 35.1145 32.1204 34.5366 32.271 33.9112C32.4249 33.2859 32.673 32.7423 33.0152 32.2807C33.3608 31.8157 33.7662 31.4687 34.2316 31.2395C34.7003 31.007 35.2119 30.8957 35.7662 30.9055C36.5805 30.9186 37.2238 31.1527 37.696 31.6078C38.1716 32.0629 38.4299 32.69 38.471 33.4889L36.7208 33.4839C36.7276 33.0485 36.6455 32.7374 36.4744 32.5508C36.3034 32.3642 36.0331 32.2643 35.6635 32.2512C34.7397 32.2217 34.1768 32.9093 33.9749 34.314C33.8826 34.9492 33.8364 35.4026 33.8364 35.6744C33.8193 36.4799 34.1306 36.894 34.7705 36.917C35.1845 36.9301 35.5147 36.8335 35.761 36.6272C36.0074 36.4176 36.1648 36.123 36.2332 35.7432L37.9475 35.7235Z" fill="#7A26F1"/>
</g>
<path d="M34.0303 67.9782C37.447 66.2428 47.0466 61.6916 46.7186 57.759H32.7785V67.9782H29.9303V67.7584C13.5913 65.8087 0.807929 52.2924 0.0170089 35.6386C1.50741 38.506 5.71824 41.3735 10.6383 43.012V32.7711H0C0.621313 15.2984 22.5502 0 29.1103 0C26.1572 1.61502 24.3542 6.06266 25.0102 10.6506H36.8785L34.0303 0.119211C54.1205 0.119211 66.7585 14.8603 67.9513 31.5422H62.3206C61.896 30.1767 60.5593 27.1181 58.6087 25.8072V35.6386H68C67.1897 52.7008 54.9405 67.9782 34.0303 67.9782Z" fill="#D87613"/>
<path d="M42.8166 57.7669C43.1173 61.7048 36.9297 66.1647 33.7984 67.9025C49.2989 66.4894 61.5779 52.7017 62.3206 35.6163H53.7137V22.4901C58.824 24.459 61.5512 29.3267 62.2759 31.5144C61.1828 14.8098 49.05 1.43899 33.7984 0.0486628V10.5944H21.7741C21.1729 6.00019 26.4354 1.61721 29.1417 0C13.2328 1.11374 0.56942 15.2485 0 32.745H9.74977V46.2814C5.24065 44.6407 1.38151 38.4877 0.0155883 35.6163C0.782073 53.2504 13.8378 67.3716 30.0408 68V57.7669H42.8166Z" fill="url(#paint0_radial)"/>
<path fill-rule="evenodd" clip-rule="evenodd" d="M1.23635 43.573C4.63147 56.2116 14.5613 65.8008 26.7608 67.6845C27.8374 67.8508 28.9317 67.957 30.0408 68V57.7669H42.8166C42.8309 57.9537 42.8306 58.1417 42.8166 58.3305C42.7504 59.2287 42.3768 60.1456 41.8056 61.044C41.3558 61.7514 40.7834 62.4473 40.142 63.1135C38.1597 65.1726 35.5181 66.9481 33.7984 67.9025C36.6478 67.6427 39.3882 66.9648 41.9682 65.9251C52.514 61.6755 60.3781 51.3814 62.0332 38.8935C62.1759 37.8166 62.2725 36.7234 62.3206 35.6163H53.7137V22.4901C54.9432 22.9638 56.0348 23.6053 56.9937 24.3369C57.3088 24.5773 57.6096 24.8275 57.8962 25.0846C60.3629 27.2971 61.7828 30.026 62.2759 31.5144C62.0898 28.6701 61.5836 25.9224 60.7965 23.3141C57.2974 11.7196 48.2465 2.87841 37.0784 0.539818C36.0037 0.314765 34.9093 0.149933 33.7984 0.0486628V10.5944H21.7741C21.7091 10.0976 21.7126 9.60334 21.7741 9.11474C21.8508 8.50461 22.0179 7.90335 22.2545 7.31728C22.7064 6.19821 23.4119 5.13446 24.2268 4.16983C25.8041 2.30278 27.7912 0.807024 29.1417 0C26.8153 0.162871 24.5582 0.604207 22.3982 1.29379C10.7219 5.02146 1.88248 16.0034 0.25095 29.4679C0.120411 30.5452 0.0360152 31.6383 0 32.745H9.74977V46.2814C8.60442 45.8647 7.501 45.1568 6.46974 44.2855C5.67318 43.6125 4.91967 42.842 4.22312 42.0329C2.43053 39.9507 1.0152 37.6127 0.2144 36.0221C0.143218 35.8807 0.0768923 35.7452 0.0155883 35.6163C0.021476 35.7518 0.0280887 35.887 0.0354224 36.0221C0.176995 38.6288 0.587241 41.1566 1.23635 43.573ZM6.46432 48.3155C10.5163 56.7764 18.0271 62.8235 26.7608 64.3611V54.4898H45.856L46.0872 57.5177C46.159 58.4587 46.0342 59.3515 45.7939 60.1754C52.5145 55.6066 57.4058 47.9659 58.7228 38.8935H50.4337V17.714L54.8939 19.4324C55.2729 19.5785 55.6409 19.7368 55.998 19.9058C52.2063 11.7938 45.2541 5.85201 37.0784 3.89978V13.8715H18.895L18.5217 11.0192C18.2941 9.2796 18.5971 7.65325 19.1703 6.19713C11.0042 10.4969 4.93512 19.0655 3.55617 29.4679H13.0298V50.9627L8.62729 49.3607C7.8731 49.0862 7.15122 48.73 6.46432 48.3155Z" fill="url(#paint1_radial)"/>
<path d="M12.3003 62.0006C14.0949 63.339 16.0508 64.5282 18.1427 65.5421L27.8804 10.6506C25.4204 10.6506 23.7804 10.6506 21.7304 10.6506L12.3003 62.0006Z" fill="white" fill-opacity="0.3"/>
<path d="M29.4491 40.2423H26.2156L22.8161 31.8008L21.2531 40.2423H17.9121L20.3739 26.8683H23.6367L27.0265 35.3097L28.5797 26.8683H31.9206L29.4491 40.2423Z" fill="#B94029"/>
<path d="M42.159 36.4578C42.0766 37.3901 42.0679 37.5968 41.5102 38.3219C40.9589 39.047 40.2302 39.6045 39.3241 39.9945C38.4242 40.3845 37.4484 40.5703 36.3965 40.552C34.9517 40.5216 33.8142 40.0737 32.9841 39.2085C32.154 38.3432 31.7009 37.1702 31.6249 35.6895C31.5678 34.7024 31.6787 33.6269 31.9576 32.4631C32.2427 31.2993 32.7021 30.2878 33.3358 29.4286C33.9758 28.5633 34.7267 27.9174 35.5885 27.4909C36.4567 27.0583 37.404 26.8511 38.4306 26.8694C39.9387 26.8937 41.13 27.3294 42.0045 28.1764C42.8853 29.0234 43.0524 29.5682 43.1285 31.055L39.8872 31.0459C39.8999 30.2354 40.0591 30.2786 39.7423 29.9313C39.4254 29.584 38.9248 29.3981 38.2405 29.3737C36.5295 29.3189 35.4871 30.5985 35.1133 33.2126C34.9422 34.3947 34.8566 35.2386 34.8566 35.7444C34.8249 37.2433 35.4016 38.0142 36.5866 38.0568C37.3533 38.0812 37.9648 37.9014 38.4211 37.5175C38.8773 37.1276 38.8575 37.2012 38.9842 36.4944L42.159 36.4578Z" fill="#B94029"/>
<defs>
<filter id="filter0_d" x="15.6792" y="19.8411" width="36.7428" height="36.7156" filterUnits="userSpaceOnUse" color-interpolation-filters="sRGB">
<feFlood flood-opacity="0" result="BackgroundImageFix"/>
<feColorMatrix in="SourceAlpha" type="matrix" values="0 0 0 0 0 0 0 0 0 0 0 0 0 0 0 0 0 0 127 0"/>
<feOffset dy="4"/>
<feGaussianBlur stdDeviation="2"/>
<feColorMatrix type="matrix" values="0 0 0 0 0 0 0 0 0 0 0 0 0 0 0 0 0 0 0.25 0"/>
<feBlend mode="normal" in2="BackgroundImageFix" result="effect1_dropShadow"/>
<feBlend mode="normal" in="SourceGraphic" in2="effect1_dropShadow" result="shape"/>
</filter>
<radialGradient id="paint0_radial" cx="0" cy="0" r="1" gradientUnits="userSpaceOnUse" gradientTransform="translate(34.3504 29.6404) scale(48.7681 53.2139)">
<stop stop-color="#FFA700"/>
<stop offset="0.3227" stop-color="#FCA300"/>
<stop offset="0.6649" stop-color="#F39600"/>
<stop offset="1" stop-color="#E58200"/>
</radialGradient>
<radialGradient id="paint1_radial" cx="0" cy="0" r="1" gradientUnits="userSpaceOnUse" gradientTransform="translate(21.2542 24.7997) scale(47.3852 47.7473)">
<stop stop-color="#FFC738"/>
<stop offset="0.2837" stop-color="#FFC534"/>
<stop offset="0.5391" stop-color="#FFBF29"/>
<stop offset="0.7827" stop-color="#FFB417"/>
<stop offset="1" stop-color="#FFA700"/>
</radialGradient>
</defs>
</svg>
