<svg width="54" height="54" viewBox="0 0 54 54" fill="none" xmlns="http://www.w3.org/2000/svg">
<path d="M41.5554 52.9453H3.16478C1.99977 52.9453 1.0554 52.0009 1.0554 50.8359V3.16406C1.0554 1.99905 1.99977 1.05469 3.16478 1.05469H41.5554C42.7204 1.05469 43.6648 1.99905 43.6648 3.16406V50.8359C43.6648 52.0009 42.7204 52.9453 41.5554 52.9453Z" fill="white"/>
<path d="M22.3604 24.0469C27.1368 24.0469 31.0089 20.1748 31.0089 15.3984C31.0089 10.622 27.1368 6.75 22.3604 6.75C17.584 6.75 13.712 10.622 13.712 15.3984C13.712 20.1748 17.584 24.0469 22.3604 24.0469Z" fill="#FE6663"/>
<path d="M25.1023 14.291V14.9766C25.1023 16.491 23.8745 17.7188 22.3601 17.7188C20.8457 17.7188 19.6179 16.491 19.6179 14.9766V14.291C19.6179 12.7766 20.8457 11.5488 22.3601 11.5488C23.8745 11.5488 25.1023 12.7766 25.1023 14.291Z" fill="#FFCDAC"/>
<path d="M22.3601 17.7188C19.6833 17.7188 17.3963 19.3817 16.4716 21.73C18.0156 23.1667 20.0846 24.0469 22.3601 24.0469C24.6356 24.0469 26.7046 23.1667 28.2486 21.73C27.3239 19.3817 25.0369 17.7188 22.3601 17.7188Z" fill="#A5DDFF"/>
<path d="M46.0449 16.9374L46.6476 15.8936C47.5796 14.2794 49.6436 13.7263 51.2579 14.6583C52.8721 15.5903 53.4252 17.6543 52.4933 19.2686L39.221 42.2569L33.3753 38.8819L39.1003 28.9657L46.0449 16.9374Z" fill="#FFBC53"/>
<path d="M51.258 14.6581C49.6438 13.7261 47.5797 14.2791 46.6477 15.8934L45.0807 18.6075L50.9264 21.9825L52.4934 19.2684C53.4253 17.6542 52.8722 15.5901 51.258 14.6581Z" fill="#FE6663"/>
<path d="M39.221 42.2566L32.441 47.2499L33.3753 38.8816L39.221 42.2566Z" fill="#9AD8FF"/>
<path d="M43.6652 42.0112C43.0828 42.0112 42.6105 42.4833 42.6105 43.0658V50.8359C42.6105 51.4175 42.1373 51.8906 41.5558 51.8906H3.16516C2.58361 51.8906 2.11047 51.4175 2.11047 50.8359V3.16406C2.11047 2.58251 2.58361 2.10938 3.16516 2.10938H41.5558C42.1373 2.10938 42.6105 2.58251 42.6105 3.16406V14.6338C42.6105 15.2163 43.0828 15.6885 43.6652 15.6885C44.2476 15.6885 44.7198 15.2163 44.7198 14.6338V3.16406C44.7198 1.4194 43.3004 0 41.5558 0H3.16516C1.4205 0 0.00109863 1.4194 0.00109863 3.16406V50.8359C0.00109863 52.5806 1.4205 54 3.16516 54H41.5558C43.3004 54 44.7198 52.5806 44.7198 50.8359V43.0658C44.7198 42.4833 44.2476 42.0112 43.6652 42.0112Z" fill="black"/>
<path d="M32.0632 15.3984C32.0632 10.0481 27.7104 5.69531 22.3601 5.69531C17.0098 5.69531 12.657 10.0481 12.657 15.3984C12.657 18.1741 13.8287 20.6808 15.7031 22.451C15.7382 22.4886 15.7756 22.5241 15.8164 22.5565C17.543 24.1363 19.8409 25.1015 22.36 25.1015C24.8791 25.1015 27.177 24.1362 28.9036 22.5565C28.9444 22.5241 28.9817 22.4885 29.0169 22.451C30.8915 20.6808 32.0632 18.1741 32.0632 15.3984ZM22.3601 7.80469C26.5473 7.80469 29.9538 11.2112 29.9538 15.3984C29.9538 17.0825 29.4021 18.6395 28.4709 19.9002C27.6931 18.7465 26.6151 17.8493 25.3635 17.2954C25.8603 16.6534 26.157 15.8492 26.157 14.9766V14.291C26.157 12.1974 24.4537 10.4941 22.3601 10.4941C20.2664 10.4941 18.5632 12.1974 18.5632 14.291V14.9766C18.5632 15.8492 18.8599 16.6534 19.3567 17.2954C18.1051 17.8493 17.0271 18.7465 16.2492 19.9002C15.318 18.6395 14.7663 17.0825 14.7663 15.3984C14.7663 11.2112 18.1729 7.80469 22.3601 7.80469ZM20.6726 14.9766V14.291C20.6726 13.3606 21.4296 12.6035 22.3601 12.6035C23.2905 12.6035 24.0476 13.3606 24.0476 14.291V14.9766C24.0476 15.907 23.2905 16.6641 22.3601 16.6641C21.4296 16.6641 20.6726 15.907 20.6726 14.9766ZM17.7731 21.4452C18.7001 19.8014 20.4299 18.7734 22.3601 18.7734C24.2903 18.7734 26.0201 19.8014 26.947 21.4452C25.6716 22.4151 24.0823 22.9922 22.3601 22.9922C20.6379 22.9922 19.0485 22.4151 17.7731 21.4452Z" fill="black"/>
<path d="M28.0554 46.1953H22.3601C21.7777 46.1953 21.3054 46.6675 21.3054 47.25C21.3054 47.8325 21.7777 48.3047 22.3601 48.3047H28.0554C28.6378 48.3047 29.1101 47.8325 29.1101 47.25C29.1101 46.6675 28.6378 46.1953 28.0554 46.1953Z" fill="black"/>
<path d="M28.0554 40.2891H13.0789C12.4965 40.2891 12.0242 40.7612 12.0242 41.3438C12.0242 41.9263 12.4965 42.3984 13.0789 42.3984H28.0554C28.6378 42.3984 29.1101 41.9263 29.1101 41.3438C29.1101 40.7612 28.6378 40.2891 28.0554 40.2891Z" fill="black"/>
<path d="M28.0554 34.3828H13.0789C12.4965 34.3828 12.0242 34.855 12.0242 35.4375C12.0242 36.02 12.4965 36.4922 13.0789 36.4922H28.0554C28.6378 36.4922 29.1101 36.02 29.1101 35.4375C29.1101 34.855 28.6378 34.3828 28.0554 34.3828Z" fill="black"/>
<path d="M9.31987 28.7856C9.1238 28.5894 8.8517 28.4766 8.57326 28.4766C8.29577 28.4766 8.02366 28.5894 7.82759 28.7856C7.63142 28.9818 7.51857 29.2539 7.51857 29.5312C7.51857 29.8086 7.63132 30.0807 7.82759 30.2769C8.02482 30.4731 8.29577 30.5859 8.57326 30.5859C8.8517 30.5859 9.12275 30.4731 9.31987 30.2769C9.51604 30.0807 9.629 29.8086 9.629 29.5312C9.629 29.2539 9.51615 28.9818 9.31987 28.7856Z" fill="black"/>
<path d="M9.31987 34.6918C9.12275 34.4957 8.8517 34.3828 8.57326 34.3828C8.29577 34.3828 8.02482 34.4957 7.82759 34.6918C7.63142 34.888 7.51857 35.1601 7.51857 35.4375C7.51857 35.7149 7.63132 35.987 7.82759 36.1832C8.02482 36.3793 8.29577 36.4922 8.57326 36.4922C8.8517 36.4922 9.12275 36.3793 9.31987 36.1832C9.51604 35.987 9.629 35.7149 9.629 35.4375C9.629 35.1601 9.51615 34.888 9.31987 34.6918Z" fill="black"/>
<path d="M8.57326 40.2891C8.29577 40.2891 8.02482 40.4019 7.82759 40.5981C7.63142 40.7943 7.51857 41.0664 7.51857 41.3438C7.51857 41.6211 7.63132 41.8932 7.82759 42.0894C8.02366 42.2856 8.29577 42.3984 8.57326 42.3984C8.8517 42.3984 9.1238 42.2856 9.31987 42.0894C9.51604 41.8932 9.629 41.6211 9.629 41.3438C9.629 41.0664 9.51615 40.7943 9.31987 40.5981C9.12275 40.4019 8.8517 40.2891 8.57326 40.2891Z" fill="black"/>
<path d="M28.0554 28.4766H13.0789C12.4965 28.4766 12.0242 28.9487 12.0242 29.5312C12.0242 30.1138 12.4965 30.5859 13.0789 30.5859H28.0554C28.6378 30.5859 29.1101 30.1138 29.1101 29.5312C29.1101 28.9487 28.6378 28.4766 28.0554 28.4766Z" fill="black"/>
<path d="M51.7854 13.7445C50.7607 13.1529 49.567 12.9958 48.424 13.302C47.2811 13.6083 46.3258 14.3413 45.7343 15.3659L32.4619 38.3542C32.3892 38.4802 32.3433 38.62 32.3271 38.7646L31.3929 47.1329C31.3465 47.5493 31.5509 47.9537 31.9137 48.1633C32.0775 48.2578 32.2594 48.3046 32.4409 48.3046C32.6616 48.3046 32.8814 48.2356 33.0665 48.0992L39.8464 43.1059C39.9636 43.0196 40.0617 42.91 40.1343 42.784L53.4066 19.7957C54.628 17.6804 53.9007 14.9659 51.7854 13.7445ZM34.2445 40.6013L37.297 42.3637L33.7566 44.9711L34.2445 40.6013ZM38.835 40.8158L34.8161 38.4955L45.4668 20.048L49.4857 22.3683L38.835 40.8158ZM51.5799 18.7409L50.5403 20.5416L46.5214 18.2212L47.561 16.4206C47.8709 15.8838 48.3712 15.4999 48.9699 15.3395C49.5687 15.179 50.194 15.2615 50.7306 15.5713C51.2673 15.8812 51.6512 16.3816 51.8116 16.9802C51.972 17.5788 51.8898 18.2042 51.5799 18.7409Z" fill="black"/>
</svg>
